<svg width="30" height="30" viewBox="0 0 30 30" fill="none" xmlns="http://www.w3.org/2000/svg">
<path d="M15.7705 29C14.9701 28.9997 14.1711 28.9343 13.3813 28.8044C9.51821 28.1686 6.06465 26.0212 3.77915 22.8337C1.49365 19.6462 0.563096 15.6793 1.19186 11.8043C1.54371 9.59828 2.39169 7.50154 3.67152 5.673C4.95136 3.84445 6.62948 2.33208 8.57867 1.25052C8.90753 1.06625 9.28223 0.98058 9.65823 1.0037C10.0342 1.02681 10.3957 1.15774 10.6996 1.38092C11.0103 1.5941 11.2525 1.89323 11.3968 2.24192C11.5411 2.59061 11.5812 2.97384 11.5123 3.34498L10.4558 3.26348L11.4554 3.44277C10.8915 6.44264 11.4184 9.54585 12.9407 12.1894C14.463 14.833 16.8796 16.8418 19.7523 17.8513C21.9646 18.6213 24.3446 18.7706 26.6353 18.2832C26.9978 18.2119 27.3729 18.2435 27.7184 18.3745C28.0639 18.5055 28.3661 18.7307 28.5908 19.0248C28.8156 19.3188 28.9539 19.6699 28.9903 20.0385C29.0268 20.4071 28.9598 20.7787 28.7969 21.1112C27.5436 23.4876 25.6691 25.4773 23.3744 26.867C21.0797 28.2567 18.4511 28.994 15.7705 29ZM9.45631 3.09234C7.90199 3.9762 6.55054 5.17822 5.48983 6.62025C4.42912 8.06228 3.68289 9.71204 3.29966 11.4623C2.91643 13.2125 2.90478 15.024 3.26546 16.7791C3.62615 18.5341 4.35109 20.1934 5.39316 21.649C6.64916 23.4098 8.33114 24.8211 10.2809 25.7504C12.2306 26.6796 14.384 27.0962 16.5385 26.9609C18.693 26.8256 20.7777 26.1429 22.5966 24.977C24.4155 23.8111 25.9088 22.2003 26.936 20.2962C24.3222 20.8231 21.6156 20.6431 19.0941 19.7746C15.767 18.6047 12.9668 16.2801 11.1993 13.2207C9.43186 10.1613 8.81362 6.56889 9.45631 3.09234Z" fill="#4D4D4D" stroke="white" stroke-width="0.5"/>
</svg>
