<svg width="22" height="22" viewBox="0 0 22 22" fill="none" xmlns="http://www.w3.org/2000/svg">
<path d="M11.6241 16.0839C11.4638 16.2592 11.2372 16.3591 10.9996 16.3591C10.762 16.3591 10.5355 16.2592 10.3752 16.0839L5.8623 11.148C5.54697 10.8031 5.57093 10.2679 5.91582 9.95252C6.26073 9.63719 6.79594 9.66111 7.11128 10.006L10.1535 13.3334V0.846159C10.1535 0.378842 10.5323 0 10.9996 0C11.4669 0 11.8458 0.378842 11.8458 0.846159V13.3334L14.888 10.006C15.2034 9.66111 15.7386 9.63719 16.0835 9.95252C16.4284 10.2679 16.4523 10.8031 16.137 11.148L11.6241 16.0839Z" fill="#242424"/>
<path d="M1.69232 14.3862C1.69232 13.9189 1.31349 13.54 0.84616 13.54C0.378843 13.54 5.9113e-07 13.9189 5.9113e-07 14.3862V14.4481C-2.19731e-05 15.9911 -4.46182e-05 17.2347 0.13146 18.2129C0.267996 19.2284 0.560079 20.0833 1.23917 20.7624C1.91827 21.4416 2.7733 21.7337 3.78882 21.8702C4.76694 22.0016 6.0106 22.0016 7.55353 22.0016H14.4466C15.9896 22.0016 17.2332 22.0016 18.2114 21.8702C19.2269 21.7337 20.0818 21.4416 20.761 20.7624C21.4401 20.0833 21.7322 19.2284 21.8687 18.2129C22.0001 17.2347 22.0001 15.9911 22.0001 14.4481V14.3862C22.0001 13.9189 21.6213 13.54 21.154 13.54C20.6867 13.54 20.3078 13.9189 20.3078 14.3862C20.3078 16.0056 20.306 17.1351 20.1915 17.9873C20.0801 18.8152 19.8766 19.2535 19.5643 19.5658C19.252 19.8781 18.8137 20.0816 17.9858 20.193C17.1336 20.3075 16.0041 20.3093 14.3847 20.3093H7.61543C5.99599 20.3093 4.86651 20.3075 4.01431 20.193C3.18647 20.0816 2.74807 19.8781 2.43582 19.5658C2.12358 19.2535 1.91999 18.8152 1.80869 17.9873C1.69411 17.1351 1.69232 16.0056 1.69232 14.3862Z" fill="#242424"/>
</svg>
